<svg width="23" height="20" viewBox="0 0 23 20" fill="none" xmlns="http://www.w3.org/2000/svg">
<path d="M10.948 10.003H3.34874M3.13334 10.9342L1.87784 14.44C1.19021 16.3601 0.84639 17.3202 1.09313 17.9113C1.30739 18.4248 1.76759 18.814 2.33545 18.9622C2.98936 19.1328 3.97701 18.7173 5.95231 17.8864L18.6158 12.5594C20.5439 11.7483 21.5079 11.3429 21.8058 10.7795C22.0647 10.2901 22.0647 9.71574 21.8058 9.22632C21.5079 8.66307 20.5439 8.25752 18.6158 7.44646L5.93047 2.11031C3.96111 1.2819 2.97645 0.867692 2.32319 1.03761C1.75587 1.18517 1.29572 1.57338 1.08071 2.08586C0.833119 2.67596 1.17326 3.63393 1.85356 5.54988L3.13578 9.16114C3.25261 9.49019 3.31104 9.65477 3.3341 9.82297C3.35457 9.97237 3.35435 10.1235 3.33349 10.2728C3.30996 10.441 3.25109 10.6053 3.13334 10.9342Z" stroke="#DADADA" stroke-width="2" stroke-linecap="round" stroke-linejoin="round"/>
</svg>
