<svg width="20" height="22" viewBox="0 0 20 22" fill="none" xmlns="http://www.w3.org/2000/svg">
<path d="M10.4097 11.476C9.09192 11.476 8.01378 10.98 7.17523 9.98803C6.33667 8.99608 5.9174 7.72072 5.9174 6.16194C5.9174 4.60317 6.33667 3.3278 7.17523 2.33585C8.01378 1.34391 9.09192 0.847931 10.4097 0.847931C11.7274 0.847931 12.8055 1.34391 13.6441 2.33585C14.4826 3.3278 14.9019 4.60317 14.9019 6.16194C14.9019 7.72072 14.4826 8.99608 13.6441 9.98803C12.8055 10.98 11.7274 11.476 10.4097 11.476ZM0.826172 22.8479V19.5178C0.826172 18.6203 1.01584 17.8528 1.39519 17.2151C1.77454 16.5774 2.26369 16.0932 2.86266 15.7626C4.20035 15.0541 5.48314 14.5226 6.71103 14.1684C7.93891 13.8141 9.17178 13.637 10.4097 13.637C11.6475 13.637 12.8754 13.82 14.0933 14.1861C15.3112 14.5522 16.589 15.0777 17.9267 15.7626C18.5456 16.0932 19.0448 16.5774 19.4241 17.2151C19.8035 17.8528 19.9931 18.6203 19.9931 19.5178V22.8479H0.826172ZM2.62307 20.7223H18.1962V19.5178C18.1962 19.1399 18.1014 18.7798 17.9117 18.4373C17.722 18.0948 17.4874 17.841 17.2079 17.6756C15.9301 16.9435 14.7621 16.4416 13.704 16.17C12.6458 15.8984 11.5477 15.7626 10.4097 15.7626C9.27161 15.7626 8.16352 15.8984 7.08538 16.17C6.00724 16.4416 4.83925 16.9435 3.58142 17.6756C3.3019 17.841 3.0723 18.0948 2.89261 18.4373C2.71292 18.7798 2.62307 19.1399 2.62307 19.5178V20.7223ZM10.4097 9.35035C11.1883 9.35035 11.8322 9.04922 12.3413 8.44696C12.8504 7.84471 13.105 7.08304 13.105 6.16194C13.105 5.24085 12.8504 4.47917 12.3413 3.87692C11.8322 3.27466 11.1883 2.97353 10.4097 2.97353C9.63099 2.97353 8.9871 3.27466 8.47798 3.87692C7.96886 4.47917 7.7143 5.24085 7.7143 6.16194C7.7143 7.08304 7.96886 7.84471 8.47798 8.44696C8.9871 9.04922 9.63099 9.35035 10.4097 9.35035Z" fill="#5E6366"/>
</svg>
