<svg width="188" height="23" viewBox="0 0 188 23" fill="none" xmlns="http://www.w3.org/2000/svg">
<path d="M10.5824 6C10.5369 5.43182 10.3238 4.98864 9.94317 4.67045C9.56817 4.35227 8.99714 4.19318 8.2301 4.19318C7.74146 4.19318 7.34089 4.25284 7.02839 4.37216C6.72157 4.4858 6.4943 4.64205 6.34657 4.84091C6.19885 5.03977 6.12214 5.26705 6.11646 5.52273C6.1051 5.73295 6.14203 5.9233 6.22726 6.09375C6.31817 6.25852 6.46021 6.40909 6.65339 6.54545C6.84657 6.67614 7.09373 6.79545 7.39487 6.90341C7.69601 7.01136 8.05396 7.10795 8.46873 7.19318L9.90055 7.5C10.8665 7.70455 11.6932 7.97443 12.3807 8.30966C13.0682 8.64489 13.6307 9.03977 14.0682 9.49432C14.5057 9.94318 14.8267 10.4489 15.0312 11.0114C15.2415 11.5739 15.3494 12.1875 15.3551 12.8523C15.3494 14 15.0625 14.9716 14.4943 15.767C13.9261 16.5625 13.1136 17.1676 12.0568 17.5824C11.0057 17.9972 9.74146 18.2045 8.26419 18.2045C6.74714 18.2045 5.42328 17.9801 4.2926 17.5312C3.1676 17.0824 2.2926 16.392 1.6676 15.4602C1.04828 14.5227 0.735779 13.3239 0.730097 11.8636H5.2301C5.25851 12.3977 5.39203 12.8466 5.63067 13.2102C5.8693 13.5739 6.20453 13.8494 6.63635 14.0369C7.07385 14.2244 7.59373 14.3182 8.19601 14.3182C8.70169 14.3182 9.12498 14.2557 9.46589 14.1307C9.8068 14.0057 10.0653 13.8324 10.2415 13.6108C10.4176 13.3892 10.5085 13.1364 10.5142 12.8523C10.5085 12.5852 10.4204 12.3523 10.25 12.1534C10.0852 11.9489 9.81248 11.767 9.4318 11.608C9.05112 11.4432 8.53692 11.2898 7.88919 11.1477L6.15055 10.7727C4.6051 10.4375 3.38635 9.87784 2.4943 9.09375C1.60794 8.30398 1.1676 7.22727 1.17328 5.86364C1.1676 4.75568 1.46305 3.78693 2.05964 2.95739C2.66192 2.12216 3.4943 1.47159 4.5568 1.00568C5.62498 0.539772 6.84942 0.306818 8.2301 0.306818C9.63919 0.306818 10.8579 0.542613 11.8863 1.0142C12.9148 1.4858 13.7074 2.15057 14.2642 3.00852C14.8267 3.8608 15.1108 4.85795 15.1165 6H10.5824ZM24.7927 4.90909V8.31818H16.1677V4.90909H24.7927ZM17.8381 1.77273H22.5427V13.7898C22.5427 13.9716 22.5739 14.125 22.6364 14.25C22.6989 14.3693 22.7955 14.4602 22.9262 14.5227C23.0569 14.5795 23.2245 14.608 23.429 14.608C23.5711 14.608 23.7358 14.5909 23.9233 14.5568C24.1165 14.5227 24.2586 14.4943 24.3495 14.4716L25.0313 17.7784C24.8211 17.8409 24.5199 17.9176 24.1279 18.0085C23.7415 18.0994 23.2813 18.1591 22.7472 18.1875C21.6677 18.2443 20.7614 18.1335 20.0284 17.8551C19.2955 17.571 18.7444 17.125 18.375 16.517C18.0057 15.9091 17.8267 15.1477 17.8381 14.233V1.77273ZM30.1201 18.2045C29.2849 18.2045 28.5463 18.0682 27.9042 17.7955C27.2679 17.517 26.7679 17.0966 26.4042 16.5341C26.0406 15.9716 25.8588 15.2557 25.8588 14.3864C25.8588 13.6705 25.9809 13.0597 26.2252 12.554C26.4696 12.0426 26.8105 11.625 27.248 11.3011C27.6855 10.9773 28.194 10.7301 28.7735 10.5597C29.3588 10.3892 29.9894 10.2784 30.6656 10.2273C31.3985 10.1705 31.9866 10.1023 32.4298 10.0227C32.8786 9.9375 33.2025 9.82102 33.4014 9.6733C33.6002 9.51989 33.6997 9.31818 33.6997 9.06818V9.03409C33.6997 8.69318 33.569 8.43182 33.3076 8.25C33.0463 8.06818 32.711 7.97727 32.3019 7.97727C31.8531 7.97727 31.4866 8.0767 31.2025 8.27557C30.9241 8.46875 30.7565 8.76705 30.6997 9.17045H26.3701C26.4269 8.375 26.6798 7.64205 27.1286 6.97159C27.5832 6.29545 28.2451 5.75568 29.1144 5.35227C29.9838 4.94318 31.069 4.73864 32.3701 4.73864C33.3076 4.73864 34.1485 4.84943 34.8929 5.07102C35.6372 5.28693 36.2707 5.59091 36.7934 5.98295C37.3161 6.36932 37.7139 6.82386 37.9866 7.34659C38.265 7.86364 38.4042 8.42614 38.4042 9.03409V18H34.0065V16.1591H33.9042C33.6429 16.6477 33.3247 17.0426 32.9497 17.3438C32.5804 17.6449 32.1571 17.8636 31.6798 18C31.2082 18.1364 30.6883 18.2045 30.1201 18.2045ZM31.6542 15.2386C32.0122 15.2386 32.3474 15.1648 32.6599 15.017C32.9781 14.8693 33.2366 14.6562 33.4355 14.3778C33.6343 14.0994 33.7338 13.7614 33.7338 13.3636V12.2727C33.6088 12.3239 33.4752 12.3722 33.3332 12.4176C33.1968 12.4631 33.0491 12.5057 32.89 12.5455C32.7366 12.5852 32.5718 12.6222 32.3957 12.6562C32.2252 12.6903 32.0463 12.7216 31.8588 12.75C31.4951 12.8068 31.1968 12.9006 30.9639 13.0312C30.7366 13.1562 30.5661 13.3125 30.4525 13.5C30.3446 13.6818 30.2906 13.8864 30.2906 14.1136C30.2906 14.4773 30.4184 14.7557 30.6741 14.9489C30.9298 15.142 31.2565 15.2386 31.6542 15.2386ZM42.807 22.9091C42.2672 22.9091 41.753 22.8665 41.2644 22.7812C40.7757 22.7017 40.3467 22.5909 39.9774 22.4489L41.0002 19.108C41.3865 19.2443 41.7388 19.3324 42.057 19.3722C42.3808 19.4119 42.6564 19.3892 42.8837 19.304C43.1166 19.2188 43.2842 19.0568 43.3865 18.8182L43.4888 18.5795L38.8865 4.90909H43.7956L45.9092 13.9773H46.0456L48.1933 4.90909H53.1365L48.3638 19.0909C48.1252 19.8125 47.7786 20.4602 47.324 21.0341C46.8752 21.6136 46.2842 22.071 45.5513 22.4062C44.8183 22.7415 43.9036 22.9091 42.807 22.9091ZM75.0031 7.09091H70.1963C70.1622 6.69318 70.0713 6.33239 69.9236 6.00852C69.7815 5.68466 69.5827 5.40625 69.327 5.17329C69.077 4.93466 68.773 4.75284 68.415 4.62784C68.0571 4.49716 67.6508 4.43182 67.1963 4.43182C66.4008 4.43182 65.7275 4.625 65.1764 5.01136C64.6309 5.39773 64.2162 5.9517 63.9321 6.6733C63.6537 7.39489 63.5145 8.26136 63.5145 9.27273C63.5145 10.3409 63.6565 11.2358 63.9406 11.9574C64.2304 12.6733 64.648 13.2131 65.1934 13.5767C65.7389 13.9347 66.3952 14.1136 67.1622 14.1136C67.5997 14.1136 67.9917 14.0597 68.3383 13.9517C68.6849 13.8381 68.9861 13.6761 69.2417 13.4659C69.4974 13.2557 69.7048 13.0028 69.8639 12.7074C70.0287 12.4062 70.1395 12.0682 70.1963 11.6932L75.0031 11.7273C74.9463 12.4659 74.7389 13.2187 74.3809 13.9858C74.023 14.7472 73.5145 15.4517 72.8554 16.0994C72.202 16.7415 71.3923 17.2585 70.4264 17.6506C69.4605 18.0426 68.3383 18.2386 67.0599 18.2386C65.4577 18.2386 64.0202 17.8949 62.7474 17.2074C61.4804 16.5199 60.4775 15.5085 59.7389 14.1733C59.0059 12.8381 58.6395 11.2045 58.6395 9.27273C58.6395 7.32955 59.0145 5.69318 59.7645 4.36364C60.5145 3.02841 61.5258 2.01989 62.7986 1.33807C64.0713 0.650568 65.4917 0.306818 67.0599 0.306818C68.1622 0.306818 69.1764 0.457386 70.1025 0.758522C71.0287 1.05966 71.8412 1.5 72.54 2.07954C73.2389 2.65341 73.8014 3.3608 74.2275 4.2017C74.6537 5.04261 74.9122 6.00568 75.0031 7.09091ZM83.288 18.2386C81.8675 18.2386 80.6516 17.9574 79.6402 17.3949C78.6289 16.8267 77.8533 16.0369 77.3135 15.0256C76.7738 14.0085 76.5039 12.8295 76.5039 11.4886C76.5039 10.1477 76.7738 8.97159 77.3135 7.96023C77.8533 6.94318 78.6289 6.15341 79.6402 5.59091C80.6516 5.02273 81.8675 4.73864 83.288 4.73864C84.7084 4.73864 85.9243 5.02273 86.9357 5.59091C87.9471 6.15341 88.7226 6.94318 89.2624 7.96023C89.8022 8.97159 90.0721 10.1477 90.0721 11.4886C90.0721 12.8295 89.8022 14.0085 89.2624 15.0256C88.7226 16.0369 87.9471 16.8267 86.9357 17.3949C85.9243 17.9574 84.7084 18.2386 83.288 18.2386ZM83.3221 14.7614C83.7198 14.7614 84.0635 14.6278 84.3533 14.3608C84.6431 14.0937 84.8675 13.7131 85.0266 13.2188C85.1857 12.7244 85.2652 12.1364 85.2652 11.4545C85.2652 10.767 85.1857 10.179 85.0266 9.69034C84.8675 9.19602 84.6431 8.81534 84.3533 8.5483C84.0635 8.28125 83.7198 8.14773 83.3221 8.14773C82.9016 8.14773 82.5408 8.28125 82.2397 8.5483C81.9385 8.81534 81.7084 9.19602 81.5493 9.69034C81.3902 10.179 81.3107 10.767 81.3107 11.4545C81.3107 12.1364 81.3902 12.7244 81.5493 13.2188C81.7084 13.7131 81.9385 14.0937 82.2397 14.3608C82.5408 14.6278 82.9016 14.7614 83.3221 14.7614ZM96.4457 10.6364V18H91.7411V4.90909H96.2071V7.39773H96.3434C96.6275 6.56818 97.1275 5.91761 97.8434 5.44602C98.565 4.97443 99.4059 4.73864 100.366 4.73864C101.292 4.73864 102.096 4.9517 102.778 5.37784C103.466 5.7983 103.997 6.37784 104.372 7.11648C104.753 7.85511 104.94 8.69886 104.934 9.64773V18H100.23V10.6364C100.235 9.98864 100.071 9.48011 99.7355 9.1108C99.4059 8.74148 98.9457 8.55682 98.3548 8.55682C97.9684 8.55682 97.6304 8.64205 97.3406 8.8125C97.0565 8.97727 96.8377 9.21591 96.6843 9.52841C96.5309 9.83523 96.4514 10.2045 96.4457 10.6364ZM111.721 10.6364V18H107.017V4.90909H111.483V7.39773H111.619C111.903 6.56818 112.403 5.91761 113.119 5.44602C113.841 4.97443 114.682 4.73864 115.642 4.73864C116.568 4.73864 117.372 4.9517 118.054 5.37784C118.741 5.7983 119.272 6.37784 119.647 7.11648C120.028 7.85511 120.216 8.69886 120.21 9.64773V18H115.505V10.6364C115.511 9.98864 115.346 9.48011 115.011 9.1108C114.682 8.74148 114.221 8.55682 113.63 8.55682C113.244 8.55682 112.906 8.64205 112.616 8.8125C112.332 8.97727 112.113 9.21591 111.96 9.52841C111.807 9.83523 111.727 10.2045 111.721 10.6364ZM128.565 18.2386C127.167 18.2386 125.963 17.9716 124.951 17.4375C123.946 16.8977 123.17 16.125 122.625 15.1193C122.085 14.108 121.815 12.8977 121.815 11.4886C121.815 10.1364 122.088 8.95455 122.633 7.94318C123.179 6.93182 123.949 6.14489 124.943 5.58239C125.937 5.01989 127.111 4.73864 128.463 4.73864C129.451 4.73864 130.346 4.89205 131.148 5.19886C131.949 5.50568 132.633 5.9517 133.201 6.53693C133.77 7.11648 134.207 7.82102 134.514 8.65057C134.821 9.48011 134.974 10.4148 134.974 11.4545V12.5455H123.281V9.95455H130.645C130.639 9.57955 130.542 9.25 130.355 8.96591C130.173 8.67614 129.926 8.4517 129.613 8.29261C129.307 8.12784 128.957 8.04545 128.565 8.04545C128.184 8.04545 127.835 8.12784 127.517 8.29261C127.199 8.4517 126.943 8.6733 126.75 8.95739C126.562 9.24148 126.463 9.57386 126.451 9.95455V12.75C126.451 13.1705 126.54 13.5455 126.716 13.875C126.892 14.2045 127.145 14.4631 127.474 14.6506C127.804 14.8381 128.201 14.9318 128.667 14.9318C128.991 14.9318 129.287 14.8864 129.554 14.7955C129.826 14.7045 130.059 14.5739 130.253 14.4034C130.446 14.2273 130.588 14.017 130.679 13.7727H134.974C134.826 14.6818 134.477 15.4716 133.926 16.142C133.375 16.8068 132.645 17.3239 131.736 17.6932C130.832 18.0568 129.775 18.2386 128.565 18.2386ZM142.961 18.2386C141.54 18.2386 140.324 17.9574 139.313 17.3949C138.302 16.8267 137.526 16.0369 136.986 15.0256C136.447 14.0085 136.177 12.8295 136.177 11.4886C136.177 10.1477 136.447 8.97159 136.986 7.96023C137.526 6.94318 138.302 6.15341 139.313 5.59091C140.324 5.02273 141.54 4.73864 142.961 4.73864C144.245 4.73864 145.356 4.97159 146.293 5.4375C147.236 5.89773 147.966 6.55114 148.484 7.39773C149.001 8.23864 149.262 9.22727 149.268 10.3636H144.904C144.841 9.67614 144.643 9.15341 144.307 8.79545C143.978 8.43182 143.552 8.25 143.029 8.25C142.62 8.25 142.262 8.36932 141.955 8.60795C141.648 8.84091 141.41 9.19602 141.239 9.6733C141.069 10.1449 140.984 10.7386 140.984 11.4545C140.984 12.1705 141.069 12.767 141.239 13.2443C141.41 13.7159 141.648 14.071 141.955 14.3097C142.262 14.5426 142.62 14.6591 143.029 14.6591C143.376 14.6591 143.682 14.5795 143.949 14.4205C144.216 14.2557 144.432 14.017 144.597 13.7045C144.768 13.3864 144.87 13 144.904 12.5455H149.268C149.251 13.6989 148.986 14.7045 148.475 15.5625C147.964 16.4148 147.239 17.0739 146.302 17.5398C145.37 18.0057 144.256 18.2386 142.961 18.2386ZM158.775 4.90909V8.31818H150.15V4.90909H158.775ZM151.821 1.77273H156.525V13.7898C156.525 13.9716 156.557 14.125 156.619 14.25C156.682 14.3693 156.778 14.4602 156.909 14.5227C157.04 14.5795 157.207 14.608 157.412 14.608C157.554 14.608 157.719 14.5909 157.906 14.5568C158.099 14.5227 158.241 14.4943 158.332 14.4716L159.014 17.7784C158.804 17.8409 158.503 17.9176 158.111 18.0085C157.724 18.0994 157.264 18.1591 156.73 18.1875C155.65 18.2443 154.744 18.1335 154.011 17.8551C153.278 17.571 152.727 17.125 152.358 16.517C151.989 15.9091 151.81 15.1477 151.821 14.233V1.77273ZM166.587 18.2386C165.19 18.2386 163.985 17.9716 162.974 17.4375C161.968 16.8977 161.192 16.125 160.647 15.1193C160.107 14.108 159.837 12.8977 159.837 11.4886C159.837 10.1364 160.11 8.95455 160.655 7.94318C161.201 6.93182 161.971 6.14489 162.965 5.58239C163.959 5.01989 165.133 4.73864 166.485 4.73864C167.474 4.73864 168.369 4.89205 169.17 5.19886C169.971 5.50568 170.655 5.9517 171.224 6.53693C171.792 7.11648 172.229 7.82102 172.536 8.65057C172.843 9.48011 172.996 10.4148 172.996 11.4545V12.5455H161.303V9.95455H168.667C168.661 9.57955 168.565 9.25 168.377 8.96591C168.195 8.67614 167.948 8.4517 167.636 8.29261C167.329 8.12784 166.979 8.04545 166.587 8.04545C166.207 8.04545 165.857 8.12784 165.539 8.29261C165.221 8.4517 164.965 8.6733 164.772 8.95739C164.584 9.24148 164.485 9.57386 164.474 9.95455V12.75C164.474 13.1705 164.562 13.5455 164.738 13.875C164.914 14.2045 165.167 14.4631 165.496 14.6506C165.826 14.8381 166.224 14.9318 166.69 14.9318C167.013 14.9318 167.309 14.8864 167.576 14.7955C167.849 14.7045 168.082 14.5739 168.275 14.4034C168.468 14.2273 168.61 14.017 168.701 13.7727H172.996C172.849 14.6818 172.499 15.4716 171.948 16.142C171.397 16.8068 170.667 17.3239 169.758 17.6932C168.854 18.0568 167.798 18.2386 166.587 18.2386ZM179.415 18.1705C178.483 18.1705 177.625 17.9261 176.841 17.4375C176.063 16.9489 175.438 16.2074 174.966 15.2131C174.5 14.2187 174.267 12.9659 174.267 11.4545C174.267 9.875 174.511 8.59091 175 7.60227C175.494 6.61364 176.131 5.8892 176.909 5.42898C177.693 4.96875 178.517 4.73864 179.381 4.73864C180.028 4.73864 180.597 4.85227 181.085 5.07954C181.574 5.30114 181.983 5.59943 182.313 5.97443C182.642 6.34375 182.892 6.75 183.063 7.19318H183.131V0.545454H187.835V18H183.165V15.8523H183.063C182.881 16.2955 182.619 16.6932 182.278 17.0455C181.943 17.392 181.534 17.6676 181.051 17.8722C180.574 18.071 180.028 18.1705 179.415 18.1705ZM181.153 14.5568C181.585 14.5568 181.955 14.4318 182.261 14.1818C182.574 13.9261 182.813 13.5682 182.977 13.108C183.148 12.642 183.233 12.0909 183.233 11.4545C183.233 10.8068 183.148 10.2528 182.977 9.79261C182.813 9.3267 182.574 8.97159 182.261 8.72727C181.955 8.47727 181.585 8.35227 181.153 8.35227C180.722 8.35227 180.352 8.47727 180.045 8.72727C179.744 8.97159 179.511 9.3267 179.347 9.79261C179.188 10.2528 179.108 10.8068 179.108 11.4545C179.108 12.1023 179.188 12.6591 179.347 13.125C179.511 13.5852 179.744 13.9403 180.045 14.1903C180.352 14.4347 180.722 14.5568 181.153 14.5568Z" fill="#EEF2FF"/>
</svg>
